<svg width="42" height="60" xmlns="http://www.w3.org/2000/svg"><g fill="none" fill-rule="evenodd"><path d="M1.033 1L1 58.753l39.767.023.03-49.15-7.654-8.605L1.033 1z" stroke="#B8C4D1" stroke-width="2"/><path stroke="#B8C4D1" stroke-width="2" d="M33 1v8.582h7.669"/><path fill="#3096D2" d="M7.01 32.808l4.99.005-.008 7.995L7 40.803zm7.993-3l4.58.003-.004 10.997L15 40.806zm9 2l4.58.006L28.58 41 24 40.994zm7.002 2l4.578.003-.004 6.997L31 40.806z"/><path fill="#B8C4D1" d="M7.085 45.56l12.833.014-.001 1.673-12.832-.014zm-.001 2.928l12.833.014-.001 1.674-12.832-.015zm-.001 2.928l6.417.007v1.673l-6.417-.007zm15.131-5.839l12.832.014v1.673l-12.833-.014zm-.001 2.927l12.832.014v1.674l-12.833-.015zm-.001 2.929l9.033.01v1.672l-9.033-.01zM8.803 25.808L8 24.73l9.96-7.288 6.475 4.39 10.339-7.023.763 1.106-11.102 7.543-6.445-4.371z"/><path fill="#B8C4D1" d="M35.466 18.247h-1.081V15.88H32v-1.073h3.466z"/><path d="M24.973 22.283c0-.814-.666-1.475-1.486-1.475-.821 0-1.487.66-1.487 1.475 0 .815.666 1.475 1.487 1.475.82 0 1.486-.66 1.486-1.475m-6-4a1.48 1.48 0 0 0-1.487-1.475A1.48 1.48 0 0 0 16 18.283a1.48 1.48 0 0 0 1.486 1.475 1.48 1.48 0 0 0 1.487-1.475" fill="#3096D2"/></g></svg>