<svg width="18" height="17" xmlns="http://www.w3.org/2000/svg"><g transform="matrix(0 -1 -1 0 18 17)" fill="#3096D2" fill-rule="evenodd"><rect width="2" height="18" rx="1"/><path d="M10.27 10.263c1.516.014 2.879.038 4.242.035 1.139 0 1.795-.503 1.717-1.355-.097-1.058-.796-1.32-1.667-1.318-1.366.003-2.732-.021-4.266-.035.007-.725.034-1.385.015-2.043-.028-.968-.37-1.21-1.072-.694-1.528 1.123-3.022 2.298-4.525 3.46-.473.366-.486.774-.011 1.153 1.513 1.208 3.02 2.428 4.555 3.604.637.487.958.133.987-.606.027-.671.017-1.347.025-2.201z" fill-rule="nonzero"/></g></svg>