<svg width="52" height="52" xmlns="http://www.w3.org/2000/svg" xmlns:xlink="http://www.w3.org/1999/xlink"><defs><circle id="a" cx="18.5" cy="18.5" r="18.5"/><path d="M34.235 31.118L44 28.706 18 18l10.706 26 2.47-9.765 7.295 7.294c.411.412 1.058.412 1.411 0l1.647-1.647c.412-.411.412-1.058 0-1.411l-7.294-7.353z" id="c"/></defs><g transform="translate(1 1)" fill="none" fill-rule="evenodd"><mask id="b" fill="#fff"><use xlink:href="#a"/></mask><use stroke="#B8C4D1" stroke-width="2" xlink:href="#a"/><circle stroke="#B8C4D1" stroke-width="2" mask="url(#b)" cx="18.5" cy="-8.5" r="18.5"/><circle stroke="#B8C4D1" stroke-width="2" mask="url(#b)" cx="18.5" cy="46.5" r="18.5"/><ellipse stroke="#B8C4D1" stroke-width="2" mask="url(#b)" cx="18.5" cy="18.5" rx="9.5" ry="18.5"/><path d="M18 0v36.893" stroke="#B8C4D1" stroke-width="2" mask="url(#b)"/><path d="M37 19H0" stroke="#B8C4D1" stroke-width="2"/><g fill-rule="nonzero"><use fill="#FFF" fill-rule="evenodd" xlink:href="#c"/><path stroke="#FFF" stroke-width="2" d="M36.187 31.666l5.993 6.045c.868.744.868 2.067.057 2.878l-1.595 1.591c-.744.868-2.067.868-2.879.057l-6.049-6.05-2.78 10.991-12.772-31.016 31.043 12.782-11.018 2.722z"/><path stroke="#B8C4D1" stroke-width="2" d="M40.795 28.468l-20.957-8.63 8.64 20.984 2.16-8.539 8.538 8.538 1.646-1.646c.012-.012.012.017-.003 0l-8.536-8.605 8.512-2.102z"/></g></g></svg>