<svg width="38" height="50" xmlns="http://www.w3.org/2000/svg"><g stroke="#B8C4D1" fill="none" fill-rule="evenodd"><path d="M22.51 20.415a4.53 4.53 0 0 0 4.635-.062 4.532 4.532 0 0 0-.108-7.78 4.532 4.532 0 0 0-6.184 1.657 4.515 4.515 0 0 0-.601 2.39 4.499 4.499 0 0 0 2.258 3.795z" stroke-width="3"/><path d="M8.936 17.018a.555.555 0 0 0-.343.373L4.299 32.789a.544.544 0 0 0 .133.529.529.529 0 0 0 .522.136c.72-.204 1.688-.789 2.809-1.466 1.469-.888 3.23-1.953 4.466-2.12l-.22.383a.542.542 0 0 0 .19.743l6.304 3.64a.54.54 0 0 0 .74-.207l.15-.26c.473 1.155.431 3.212.398 4.927-.027 1.31-.051 2.441.134 3.168a.53.53 0 0 0 .903.234L32.016 31.08a.558.558 0 0 0 .151-.482 19.268 19.268 0 0 0-.818-3.15 19.903 19.903 0 0 0 2.848-3.792c3.801-6.584 3.52-14.89-.736-21.679a.534.534 0 0 0-.428-.247c-8.007-.292-15.34 3.616-19.142 10.2a19.884 19.884 0 0 0-1.82 4.222c-1.037.192-2.09.484-3.135.867z" stroke-width="2"/><path stroke-width="2" stroke-linecap="round" stroke-linejoin="round" d="M10.504 35L1.8 40.148l5.89.464-3.103 7.964 7.167-6.779 4.767 4.83-.54-8.751z"/></g></svg>