<svg width="43" height="50" xmlns="http://www.w3.org/2000/svg"><g stroke="#B8C4D1" fill="none" fill-rule="evenodd"><path d="M42 26V10.231c0-1.163-.575-1.818-1.637-1.89-.21 0-.365-.018-.719-.07a3.835 3.835 0 0 0-.526-.054c-1.762-.175-2.533-.273-3.447-.479-4.27-.956-8.288-2.868-12.746-6.059-1.258-.905-1.59-.905-2.861.01-6.025 4.167-11.47 6.293-17.139 6.65C1.531 8.42 1 9.003 1 10.459v16.188c0 1.21.189 2.597.548 4.167.77 3.326 2.535 6.39 5.367 9.243 3.495 3.636 8.03 6.473 13.932 8.764.4.136.57.179.712.179.28 0 .613-.067.944-.181a2.9 2.9 0 0 0 .384-.175c.303-.152.446-.217.603-.268a29.372 29.372 0 0 0 4.253-2.037c4.613-2.433 8.08-5.324 10.658-8.826 2.227-3.144 3.379-6.195 3.486-9.25 0-1.047.019-1.565.113-2.263z" stroke-width="2"/><path stroke-width="3" stroke-linecap="round" stroke-linejoin="round" d="M14 25.081L18.634 30 29 19"/></g></svg>