<svg width="44" height="50" xmlns="http://www.w3.org/2000/svg"><g stroke="#B8C4D1" fill="none" fill-rule="evenodd"><path d="M42.137 25.95V10.212c0-1.16-.576-1.813-1.645-1.886-.21 0-.366-.017-.72-.07a3.865 3.865 0 0 0-.529-.052c-1.767-.175-2.54-.274-3.457-.478-4.283-.955-8.312-2.863-12.784-6.047-1.264-.905-1.602-.905-2.878.01C14.08 5.847 8.62 7.97 2.934 8.325 1.532 8.406 1 8.988 1 10.439v16.157c0 1.208.19 2.59.55 4.157.772 3.319 2.542 6.377 5.383 9.224 3.506 3.63 8.056 6.46 13.978 8.748.401.136.573.179.716.179.282 0 .618-.067.95-.181a3.15 3.15 0 0 0 .387-.175c.303-.152.446-.217.604-.268a29.536 29.536 0 0 0 4.267-2.033c4.628-2.428 8.107-5.314 10.692-8.81 2.235-3.136 3.39-6.18 3.497-9.228 0-1.046.019-1.562.113-2.259z" stroke-width="2"/><path stroke-width="3" stroke-linecap="round" stroke-linejoin="round" d="M13.533 25.533l4.704 4.917 10.521-10.996"/></g></svg>