<svg width="44" height="47" xmlns="http://www.w3.org/2000/svg"><path d="M8.803 24.885c-2.19 0-3.983 1.808-3.983 4.019v.502c-1.991.553-3.186 2.663-2.638 4.673.547 2.01 2.638 3.216 4.63 2.663 1.99-.553 3.185-2.663 2.638-4.673a3.738 3.738 0 0 0-2.639-2.663v-.502c0-1.105.896-2.01 1.992-2.01h24.392c1.095 0 1.992.905 1.992 2.01v.502c-1.992.553-3.186 2.663-2.639 4.673.548 2.01 2.639 3.216 4.63 2.663 1.991-.553 3.186-2.663 2.638-4.673a3.738 3.738 0 0 0-2.638-2.663v-.502c0-2.21-1.792-4.02-3.983-4.02h-11.2v-3.516h7.915c3.484-.05 6.272-2.915 6.222-6.482a6.186 6.186 0 0 0-1.792-4.37c-.398-.403-.896-.755-1.394-1.056a7.37 7.37 0 0 0-6.82-4.874h-.697C22.99.266 17.564-1.292 13.233 1.17c-2.837 1.557-4.58 4.572-4.58 7.838v.653a6.179 6.179 0 0 0-2.837 5.326 6.34 6.34 0 0 0 1.842 4.471c1.145 1.206 2.787 1.86 4.43 1.86h7.915v3.516l-11.2.05zm-1.195 8.19a1.793 1.793 0 0 1-1.792 1.808 1.793 1.793 0 0 1-1.792-1.809c0-.954.796-1.758 1.742-1.758h.05c.946-.05 1.742.753 1.792 1.708v.05zm30.366 0a1.793 1.793 0 0 1-1.792 1.808 1.793 1.793 0 0 1-1.792-1.809c0-1.005.797-1.809 1.792-1.809.996.05 1.792.855 1.792 1.81zM9.051 18.101c-1.692-1.759-1.642-4.572.1-6.23.299-.302.647-.553.996-.754.398-.15.647-.603.547-1.005-.05-.352-.05-.703-.05-1.055 0-3.869 3.137-7.034 6.97-7.034a7.11 7.11 0 0 1 6.322 4.12c.2.452.647.653 1.095.553l1.095-.1c2.34.05 4.331 1.557 5.028 3.818.1.301.299.502.548.653.498.2.896.502 1.244.904 1.693 1.658 1.693 4.422 0 6.13a4.273 4.273 0 0 1-3.036 1.256H12.088a3.897 3.897 0 0 1-3.037-1.256zm33.971 27.013v-1.816c-.05-2.993-2.498-5.397-5.546-5.397h-1.2c-3.047 0-5.496 2.404-5.546 5.397v1.816c0 .54.45.981 1 .981h10.293c.55 0 1-.392 1-.981zm-1.998-.982h-8.295v-.834a3.52 3.52 0 0 1 3.548-3.435h1.199a3.52 3.52 0 0 1 3.548 3.435v.834zM0 43.298v1.816c0 .54.45.981 1 .981h10.293c.55 0 1-.441 1-.981v-1.816c-.05-2.993-2.5-5.397-5.547-5.397h-1.2C2.498 37.9.05 40.354 0 43.298zm1.999 0a3.52 3.52 0 0 1 3.547-3.435h1.2a3.52 3.52 0 0 1 3.547 3.435v.834H2v-.834z" fill="#B8C4D1"/></svg>