<svg width="51" height="51" xmlns="http://www.w3.org/2000/svg"><g fill="none"><path d="M25.5 50C12.006 50 1 39.008 1 25.531S12.006 1 25.5 1 50 11.992 50 25.469 39.056 50 25.5 50z" stroke="#B8C4D1" stroke-width="2"/><path d="M9.927 45a.93.93 0 0 1-.865-.63.986.986 0 0 1 .556-1.262l8.528-3.53c.927-.38 1.545-1.325 1.545-2.397 0-.126 0-.19.062-.315-2.163-1.64-3.585-4.162-3.832-7-.803-.63-1.236-1.513-1.236-2.585 0-1.009.433-1.892 1.174-2.522v-2.964c0-3.027 1.36-5.801 3.647-7.693 2.286-1.891 5.314-2.522 8.219-1.828 4.202 1.072 7.292 5.17 7.292 9.836v2.712c.742.63 1.236 1.513 1.236 2.522 0 1.01-.494 1.955-1.236 2.585a9.82 9.82 0 0 1-3.832 6.937.576.576 0 0 1 .062.315c0 1.072.618 1.955 1.545 2.333l8.59 3.468c.495.19.742.757.556 1.261a.954.954 0 0 1-1.236.568l-8.59-3.468a4.485 4.485 0 0 1-2.657-3.216h-.741c-.433 0-.866-.315-.927-.757-.186-.441.061-.883.494-1.072 2.78-1.135 4.697-3.91 4.82-7 0-.377.247-.693.556-.819.433-.189.68-.63.68-1.135 0-.504-.247-.883-.68-1.135a1.01 1.01 0 0 1-.494-.883v-3.279c0-3.72-2.472-7.062-5.87-7.882-2.35-.567-4.76 0-6.613 1.45-1.854 1.514-2.905 3.721-2.905 6.18v3.531c0 .379-.185.694-.494.883-.433.19-.68.63-.68 1.135s.247.883.68 1.135c.309.19.494.505.556.82.124 3.09 1.978 5.801 4.82 7 .433.188.68.63.556 1.071-.061.442-.494.757-.927.757h-.865a4.485 4.485 0 0 1-2.657 3.216l-8.528 3.53c-.062.127-.186.127-.31.127z" fill="#B8C4D1"/></g></svg>