<svg width="25" height="24" xmlns="http://www.w3.org/2000/svg"><path d="M5.366 24H.298C.15 24 0 24 0 23.702V7.752c0-.15 0-.299.298-.299h5.068V24zM2.683 5.366a2.683 2.683 0 1 1 2.683-2.683 2.668 2.668 0 0 1-2.683 2.683zM25.043 24h-5.515v-8.646a4.74 4.74 0 0 0-.298-2.087 2.34 2.34 0 0 0-2.683-1.64 3.294 3.294 0 0 0-2.684 2.087 4.13 4.13 0 0 0-.149 1.342V24H8.2V7.602h5.068c.15 0 .298 0 .298.299v1.938c.26-.379.56-.729.895-1.044a4.785 4.785 0 0 1 2.981-1.49 7.96 7.96 0 0 1 3.28.297 4.77 4.77 0 0 1 2.832 2.535 8.944 8.944 0 0 1 1.043 4.472v9.242c.447 0 .447 0 .447.149z" fill="#3096D2"/></svg>