<svg width="17" height="18" xmlns="http://www.w3.org/2000/svg"><g fill="#3096D2"><path d="M8.082 18C12.999 18 17 13.963 17 9s-4-9-8.918-9a.85.85 0 0 0-.847.854c0 .472.38.855.847.855 3.984 0 7.226 3.27 7.226 7.291 0 4.02-3.24 7.291-7.224 7.291a.845.845 0 0 0-.734.427.861.861 0 0 0 0 .854c.15.265.43.428.732.428z"/><path d="M6.73 10.263c-1.516.014-2.879.038-4.242.035-1.139 0-1.795-.503-1.717-1.355.097-1.058.796-1.32 1.667-1.318 1.366.003 2.732-.021 4.266-.035-.007-.725-.034-1.385-.015-2.043.028-.968.37-1.21 1.072-.694 1.528 1.123 3.022 2.298 4.525 3.46.473.366.486.774.011 1.153-1.513 1.208-3.02 2.428-4.555 3.604-.637.487-.958.133-.987-.606-.027-.671-.017-1.347-.025-2.201z"/></g></svg>