<svg width="499" height="61" xmlns="http://www.w3.org/2000/svg" xmlns:xlink="http://www.w3.org/1999/xlink"><defs><linearGradient x1="50%" y1="0%" x2="50%" y2="100%" id="a"><stop stop-color="#10587F" offset="0%"/><stop stop-color="#023162" offset="100%"/></linearGradient><path d="M19.943 11.058c2.806 2.235 4.602 5.67 4.602 9.52 0 6.735-5.494 12.194-12.272 12.194C5.495 32.772 0 27.312 0 20.578c0-3.85 1.797-7.285 4.602-9.52V7.67a7.67 7.67 0 0 1 15.341 0v3.388z" id="b"/><radialGradient cy="0%" fx="50%" fy="0%" r="111.803%" gradientTransform="matrix(.31583 .63167 -.94882 .21026 .342 -.316)" id="e"><stop stop-color="#10587F" offset="0%"/><stop stop-color="#023162" offset="100%"/></radialGradient><path d="M12.273 16.386c1.5 0 2.727 1.23 2.727 2.731 0 .956-.545 1.912-1.364 2.322v3.14H10.91v-3.14c-.818-.41-1.364-1.366-1.364-2.322a2.737 2.737 0 0 1 2.728-2.73z" id="d"/><filter x="-220%" y="-146.5%" width="540%" height="392.9%" filterUnits="objectBoundingBox" id="c"><feOffset in="SourceAlpha" result="shadowOffsetOuter1"/><feGaussianBlur stdDeviation="4" in="shadowOffsetOuter1" result="shadowBlurOuter1"/><feColorMatrix values="0 0 0 0 1 0 0 0 0 1 0 0 0 0 1 0 0 0 0.5 0" in="shadowBlurOuter1"/></filter></defs><g fill="none" fill-rule="evenodd"><path d="M117.75 43.79c0-2.003-.705-3.54-2.114-4.612-1.41-1.072-3.946-2.204-7.61-3.394-3.665-1.19-6.565-2.362-8.703-3.517-5.825-3.157-8.738-7.41-8.738-12.76 0-2.78.781-5.26 2.343-7.44 1.562-2.18 3.806-3.883 6.73-5.108 2.924-1.226 6.207-1.838 9.847-1.838 3.664 0 6.93.666 9.795 1.997s5.091 3.21 6.676 5.638c1.586 2.427 2.379 5.184 2.379 8.271h-10.57c0-2.356-.74-4.189-2.22-5.496-1.48-1.308-3.558-1.962-6.236-1.962-2.584 0-4.592.548-6.025 1.643-1.432 1.096-2.149 2.54-2.149 4.33 0 1.674.84 3.076 2.52 4.207 1.679 1.13 4.15 2.191 7.416 3.18 6.013 1.815 10.393 4.066 13.141 6.752 2.749 2.687 4.123 6.033 4.123 10.039 0 4.454-1.68 7.947-5.039 10.48-3.358 2.533-7.88 3.8-13.564 3.8-3.946 0-7.54-.725-10.781-2.174-3.242-1.45-5.714-3.434-7.417-5.956C89.851 47.35 89 44.427 89 41.104h10.605c0 5.68 3.382 8.519 10.147 8.519 2.513 0 4.474-.513 5.884-1.538 1.409-1.025 2.114-2.456 2.114-4.295zM152.383 58c-5.59 0-10.14-1.72-13.652-5.16-3.512-3.441-5.268-8.024-5.268-13.75v-.99c0-3.841.74-7.276 2.22-10.304 1.48-3.028 3.576-5.361 6.289-6.999 2.713-1.638 5.807-2.456 9.284-2.456 5.214 0 9.319 1.65 12.313 4.948 2.995 3.3 4.493 7.977 4.493 14.033v4.17h-24.276c.33 2.499 1.322 4.502 2.978 6.01 1.656 1.508 3.752 2.262 6.289 2.262 3.922 0 6.987-1.426 9.195-4.277l5.003 5.62c-1.526 2.168-3.593 3.859-6.2 5.073-2.608 1.213-5.497 1.82-8.668 1.82zm-1.162-31.388c-2.02 0-3.659.683-4.915 2.05-1.257 1.367-2.062 3.323-2.414 5.868h14.164v-.813c-.047-2.263-.658-4.012-1.832-5.25-1.175-1.237-2.843-1.855-5.003-1.855zm38.473 23.152c1.88 0 3.406-.518 4.58-1.555 1.175-1.037 1.786-2.416 1.833-4.136h9.548c-.024 2.592-.728 4.967-2.114 7.123-1.386 2.156-3.283 3.829-5.69 5.019-2.408 1.19-5.068 1.785-7.98 1.785-5.45 0-9.748-1.738-12.896-5.214-3.147-3.475-4.72-8.277-4.72-14.404v-.671c0-5.891 1.561-10.593 4.685-14.104 3.124-3.51 7.41-5.266 12.86-5.266 4.768 0 8.59 1.36 11.468 4.082 2.878 2.722 4.34 6.345 4.387 10.87h-9.548c-.047-1.98-.658-3.588-1.832-4.825-1.175-1.238-2.725-1.856-4.651-1.856-2.372 0-4.163.866-5.373 2.598-1.21 1.732-1.815 4.542-1.815 8.43v1.06c0 3.936.6 6.764 1.797 8.484 1.198 1.72 3.019 2.58 5.461 2.58zm44.605 3.64c-2.514 3.064-5.99 4.596-10.43 4.596-4.086 0-7.204-1.178-9.353-3.535-2.15-2.356-3.248-5.808-3.295-10.356V19.048h10.183v24.707c0 3.983 1.808 5.974 5.425 5.974 3.453 0 5.825-1.202 7.117-3.606V19.048h10.218v38.245h-9.584l-.281-3.888zm38.967-24.777c-1.386-.189-2.607-.283-3.664-.283-3.853 0-6.378 1.308-7.575 3.923v25.026h-10.183V19.048h9.619l.282 4.56c2.043-3.512 4.873-5.267 8.49-5.267 1.128 0 2.185.153 3.172.46l-.141 9.826zM295.709 58c-5.59 0-10.141-1.72-13.653-5.16-3.511-3.441-5.267-8.024-5.267-13.75v-.99c0-3.841.74-7.276 2.22-10.304 1.48-3.028 3.576-5.361 6.289-6.999 2.712-1.638 5.807-2.456 9.283-2.456 5.215 0 9.32 1.65 12.314 4.948 2.995 3.3 4.492 7.977 4.492 14.033v4.17h-24.275c.329 2.499 1.321 4.502 2.977 6.01s3.752 2.262 6.29 2.262c3.922 0 6.987-1.426 9.195-4.277l5.003 5.62c-1.527 2.168-3.594 3.859-6.201 5.073-2.607 1.213-5.496 1.82-8.667 1.82zm-1.163-31.388c-2.02 0-3.658.683-4.915 2.05-1.256 1.367-2.06 3.323-2.413 5.868h14.163v-.813c-.047-2.263-.657-4.012-1.832-5.25-1.174-1.237-2.842-1.855-5.003-1.855zm49.89 17.178c0-2.003-.705-3.54-2.115-4.612-1.409-1.072-3.946-2.204-7.61-3.394s-6.565-2.362-8.702-3.517c-5.825-3.157-8.738-7.41-8.738-12.76 0-2.78.781-5.26 2.343-7.44 1.562-2.18 3.805-3.883 6.73-5.108 2.924-1.226 6.206-1.838 9.847-1.838 3.664 0 6.929.666 9.794 1.997 2.866 1.331 5.092 3.21 6.677 5.638 1.585 2.427 2.378 5.184 2.378 8.271h-10.57c0-2.356-.74-4.189-2.22-5.496-1.479-1.308-3.558-1.962-6.235-1.962-2.584 0-4.592.548-6.025 1.643-1.433 1.096-2.15 2.54-2.15 4.33 0 1.674.84 3.076 2.52 4.207 1.68 1.13 4.151 2.191 7.416 3.18 6.013 1.815 10.394 4.066 13.142 6.752 2.748 2.687 4.122 6.033 4.122 10.039 0 4.454-1.68 7.947-5.038 10.48-3.359 2.533-7.88 3.8-13.565 3.8-3.946 0-7.54-.725-10.78-2.174-3.242-1.45-5.714-3.434-7.417-5.956-1.703-2.521-2.554-5.443-2.554-8.766h10.605c0 5.68 3.382 8.519 10.146 8.519 2.514 0 4.475-.513 5.884-1.538 1.41-1.025 2.114-2.456 2.114-4.295zm27.023-20.571c2.7-3.252 6.095-4.878 10.182-4.878 8.268 0 12.46 4.819 12.578 14.457v24.495h-10.182V33.08c0-2.191-.47-3.811-1.41-4.86-.94-1.049-2.501-1.573-4.686-1.573-2.983 0-5.144 1.155-6.482 3.464v27.182h-10.183V3h10.183v20.219zM419.445 58c-5.59 0-10.14-1.72-13.652-5.16-3.512-3.441-5.268-8.024-5.268-13.75v-.99c0-3.841.74-7.276 2.22-10.304 1.48-3.028 3.576-5.361 6.289-6.999 2.713-1.638 5.807-2.456 9.284-2.456 5.214 0 9.319 1.65 12.313 4.948 2.995 3.3 4.493 7.977 4.493 14.033v4.17h-24.276c.33 2.499 1.322 4.502 2.978 6.01 1.655 1.508 3.752 2.262 6.289 2.262 3.922 0 6.987-1.426 9.195-4.277l5.003 5.62c-1.527 2.168-3.593 3.859-6.2 5.073-2.608 1.213-5.497 1.82-8.668 1.82zm-1.163-31.388c-2.02 0-3.658.683-4.914 2.05-1.257 1.367-2.062 3.323-2.414 5.868h14.164v-.813c-.047-2.263-.658-4.012-1.833-5.25-1.174-1.237-2.842-1.855-5.003-1.855zM458.447 58c-5.59 0-10.14-1.72-13.652-5.16-3.512-3.441-5.267-8.024-5.267-13.75v-.99c0-3.841.74-7.276 2.22-10.304 1.479-3.028 3.575-5.361 6.288-6.999s5.808-2.456 9.284-2.456c5.214 0 9.319 1.65 12.314 4.948 2.995 3.3 4.492 7.977 4.492 14.033v4.17H449.85c.329 2.499 1.32 4.502 2.977 6.01 1.656 1.508 3.752 2.262 6.289 2.262 3.922 0 6.988-1.426 9.196-4.277l5.003 5.62c-1.527 2.168-3.594 3.859-6.201 5.073-2.608 1.213-5.497 1.82-8.668 1.82zm-1.162-31.388c-2.02 0-3.659.683-4.915 2.05-1.257 1.367-2.061 3.323-2.414 5.868h14.164v-.813c-.047-2.263-.658-4.012-1.832-5.25-1.175-1.237-2.842-1.855-5.003-1.855zm34.81-16.967v9.403h6.517v7.493h-6.518V45.63c0 1.413.27 2.427.81 3.04.541.612 1.574.918 3.101.918 1.128 0 2.126-.082 2.995-.247v7.741a20.898 20.898 0 0 1-6.166.919c-7.14 0-10.78-3.617-10.922-10.852V26.541h-5.566v-7.493h5.566V9.645h10.182z" fill="#FFF"/><g stroke="#FFF" stroke-linecap="round" stroke-linejoin="round"><path stroke-width="5" fill="#DADDE1" d="M3.03 57.97h54.738V3.232H3.03z"/><path stroke-width="3.5" fill="url(#a)" d="M0 18.38h54.737V0H0z" transform="translate(3 3)"/><path stroke-width="2" fill="#B8C4D1" d="M3 39.426h18.291v-18.38H3zm36.446 0h18.291v-18.38H39.446z"/><path stroke-width="2" fill="#B8C4D1" d="M3 57.473h18.291v-18.38H3z"/><path stroke-width="2" fill="#B8C4D1" d="M21.223 57.473h18.291v-18.38H21.223z"/><path stroke-width="2" fill="#B8C4D1" d="M39.446 57.473h18.291v-18.38H39.446z"/></g><g transform="translate(18 14)"><use fill="#FFF" xlink:href="#b"/><path stroke="url(#a)" stroke-width="3.5" d="M18.853 12.427l-.66-.525V7.67a5.92 5.92 0 1 0-11.84 0v4.232l-.66.525a10.39 10.39 0 0 0-3.943 8.151c0 5.766 4.709 10.444 10.523 10.444s10.522-4.678 10.522-10.444a10.39 10.39 0 0 0-3.942-8.15z"/><path stroke="#FFF" stroke-width="3.5" d="M21.693 10.249a13.878 13.878 0 0 1 4.602 10.329c0 7.704-6.28 13.944-14.022 13.944S-1.75 28.282-1.75 20.578a13.88 13.88 0 0 1 4.602-10.33V7.67a9.42 9.42 0 1 1 18.841 0v2.579z"/><ellipse stroke="url(#a)" stroke-width="3.5" cx="12.273" cy="20.483" rx="10.523" ry="10.54"/><use fill="#000" filter="url(#c)" xlink:href="#d"/><use fill="url(#e)" xlink:href="#d"/></g></g></svg>