<svg width="342" height="400" xmlns="http://www.w3.org/2000/svg" xmlns:xlink="http://www.w3.org/1999/xlink"><defs><filter x="-22.3%" y="-13.8%" width="139%" height="132.4%" filterUnits="objectBoundingBox" id="a"><feOffset dx="-12" dy="12" in="SourceAlpha" result="shadowOffsetOuter1"/><feGaussianBlur stdDeviation="15" in="shadowOffsetOuter1" result="shadowBlurOuter1"/><feColorMatrix values="0 0 0 0 0 0 0 0 0 0 0 0 0 0 0 0 0 0 0.15 0" in="shadowBlurOuter1" result="shadowMatrixOuter1"/><feMerge><feMergeNode in="shadowMatrixOuter1"/><feMergeNode in="SourceGraphic"/></feMerge></filter><path id="b" d="M0 339.879l215.83.121.17-306.88L.17 33z"/><path id="d" d="M46.11.195l212.24.118-.168 300.415-212.241-.12z"/><filter x="-14.1%" y="-6%" width="122.6%" height="116%" filterUnits="objectBoundingBox" id="c"><feOffset dx="-6" dy="6" in="SourceAlpha" result="shadowOffsetOuter1"/><feGaussianBlur stdDeviation="7" in="shadowOffsetOuter1" result="shadowBlurOuter1"/><feComposite in="shadowBlurOuter1" in2="SourceAlpha" operator="out" result="shadowBlurOuter1"/><feColorMatrix values="0 0 0 0 0 0 0 0 0 0 0 0 0 0 0 0 0 0 0.35 0" in="shadowBlurOuter1"/></filter><filter x="-11.8%" width="123.6%" height="123.6%" filterUnits="objectBoundingBox" id="e"><feOffset dy="2" in="SourceAlpha" result="shadowOffsetOuter1"/><feGaussianBlur stdDeviation="4" in="shadowOffsetOuter1" result="shadowBlurOuter1"/><feColorMatrix values="0 0 0 0 0 0 0 0 0 0 0 0 0 0 0 0 0 0 0.35 0" in="shadowBlurOuter1" result="shadowMatrixOuter1"/><feMerge><feMergeNode in="shadowMatrixOuter1"/><feMergeNode in="SourceGraphic"/></feMerge></filter><linearGradient x1="50%" y1="0%" x2="50%" y2="100%" id="f"><stop stop-color="#5EC7EB" offset="0%"/><stop stop-color="#3096D2" offset="100%"/></linearGradient></defs><g filter="url(#a)" transform="translate(42 18)" fill="none" fill-rule="evenodd"><use fill="#FFF" xlink:href="#b"/><path stroke="#CDCDCD" stroke-width="3" d="M1.5 338.38l212.831.12.168-303.881L1.67 34.5l-.168 303.88z"/><path d="M132.675 192.628c-1.152 3.562-3.006 6.765-5.493 9.446l18.734 26.174c9.466-8.167 16.269-19.323 18.845-32.058l-32.086-3.562z" fill="#A6DAE9"/><path d="M113.558 159.431c10.914 2.277 19.183 11.489 20.27 22.786l32.038 3.537c0-.361.046-.71.046-1.083 0-30.053-23.003-54.715-52.354-57.373v32.133z" fill="#F99B1C"/><path d="M89.36 167.392c3.567-3.955 8.288-6.829 13.738-7.96v-32.134c-17.108 1.538-31.972 10.56-41.486 23.747l27.748 16.347z" fill="#15B0BF"/><path d="M118.71 208.201a25.353 25.353 0 0 1-10.394 2.24c-14.214 0-25.738-11.546-25.738-25.77 0-2.906.588-5.645 1.472-8.244L56.3 160.065c-3.524 7.473-5.581 15.786-5.581 24.606 0 31.839 25.78 57.631 57.596 57.631a56.966 56.966 0 0 0 29.08-7.95l-18.685-26.15z" fill="#4C8EB4"/><path fill="#F99B1C" d="M23.428 61.367h26.81v-7.809h-26.81z"/><path fill="#15B0BF" d="M23.428 79.16h26.81v-7.808h-26.81z"/><path fill="#A6DAE9" d="M23.428 96.953h26.81v-7.806h-26.81z"/><path fill="#4C8EB4" d="M23.428 114.747h26.81v-7.806h-26.81z"/><path fill="#CCC" d="M68.39 62.734h124.812v-8.786H68.39zm0 26.247h124.812v-8.777H68.39zm0 26.249h124.812v-8.772H68.39zm0-13.127h124.812v-8.77H68.39zm0-26.251h124.812v-8.77H68.39zM23.431 310.648h5.673v-60.33h-5.673z"/><path fill="#CCC" d="M23.428 316.325h169.774v-5.677H23.428z"/><path fill="#15B0BF" d="M43.997 310.647h15.199V283.82H43.997z"/><path fill="#A6DAE9" d="M43.997 283.82h15.199v-13.41H43.997z"/><path fill="#15B0BF" d="M72.34 310.647h15.2v-38.444h-15.2z"/><path fill="#A6DAE9" d="M72.34 272.204h15.2v-7.689h-15.2z"/><path fill="#15B0BF" d="M100.683 310.648h15.2v-19.52h-15.2z"/><path fill="#A6DAE9" d="M100.683 291.128h15.2v-14.014h-15.2z"/><path fill="#15B0BF" d="M129.026 310.648h15.2v-11.179h-15.2z"/><path fill="#A6DAE9" d="M129.026 299.47h15.2v-11.178h-15.2z"/><g transform="translate(23)"><use fill="#000" filter="url(#c)" xlink:href="#d"/><use fill="#FFF" xlink:href="#d"/><path stroke="#CFCFCF" stroke-width="3" d="M47.609 1.695l-.167 297.414 209.241.118.167-297.415-209.241-.117z"/></g><path fill="#4C8EB4" d="M95.745 155.486l18.329.01-.031 16.688-18.333-.01z"/><path fill="#609DC1" d="M116.925 148.303l18.332.008-.02 23.884-18.331-.01z"/><path fill="#73ACCD" d="M138.115 131.575l18.33.009-.015 40.622-18.33-.01z"/><path fill="#87BBDA" d="M159.314 137.219l18.33.011-.02 34.988-18.328-.01z"/><path fill="#9ACAE6" d="M180.502 154.707l18.331.01-.015 17.514-18.328-.01z"/><path fill="#73ACCD" d="M201.158 148.08l18.329.011-.011 24.116-18.332-.01z"/><path fill="#87BBDA" d="M222.359 137.213l18.328.012-.018 34.993-18.33-.01z"/><path fill="#9ACAE6" d="M243.545 114.109l18.332.008-.014 58.114-18.33-.01z"/><path fill="#CCC" d="M88.473 196.894l79.524.044v5.289l-79.529-.045zm-.007 9.254l79.528.043-.005 5.289-79.525-.044zm-.005 9.254l79.525.045-.001 5.288-79.527-.043zm-.004 9.255l79.525.044-.002 5.287-79.527-.04zm-.005 9.254l79.525.044-.004 5.289-79.525-.045zm-.006 9.253l79.527.045-.005 5.29-79.524-.047zm-.006 9.256l79.528.043-.005 5.292-79.525-.047zm-.004 9.254l39.764.022-.003 5.289-39.763-.021zm93.794-64.727l79.526.043-.004 5.289-79.525-.045zm-.006 9.253l79.528.045-.005 5.287-79.526-.043zm-.006 9.255l79.527.042-.003 5.29-79.526-.043zm-.004 9.255l79.526.044-.001 5.286-79.528-.042zm-.004 9.253l79.524.046-.002 5.287-79.527-.044zm-.007 9.255l79.528.045-.005 5.288-79.526-.043zm-.007 9.254l79.528.043-.003 5.29-79.526-.045zm-.003 9.256l55.978.03-.003 5.288-55.977-.031z"/><path fill="#FEC00F" d="M99.907 100.39l-4.876-6.613 60.52-44.674 39.337 26.914 62.818-43.05 4.637 6.779-67.454 46.23-39.157-26.793z"/><path fill="#FEC00F" d="M262.917 54.143h-6.571v-14.5h-14.489V33.07h21.06z"/><path d="M203.4 79.453c0-4.993-4.047-9.04-9.033-9.04-4.988 0-9.033 4.047-9.033 9.04 0 4.99 4.045 9.04 9.033 9.04 4.986 0 9.033-4.05 9.033-9.04m-38.59-25.31c0-4.992-4.044-9.04-9.034-9.04-4.988 0-9.032 4.048-9.032 9.04 0 4.993 4.044 9.041 9.032 9.041 4.99 0 9.034-4.048 9.034-9.04" fill="#15B0BF"/><g filter="url(#e)" transform="translate(123.317 94.736)"><path d="M0 54.571c.032-14.537 5.73-28.228 16.05-38.538C26.426 5.671 40.19-.023 54.803 0 69.398.03 83.121 5.743 93.45 16.102c10.333 10.356 16.014 24.083 15.987 38.662-.027 14.527-5.722 28.2-16.037 38.507-10.394 10.376-24.163 16.069-38.797 16.04C24.436 109.263-.057 84.704 0 54.57" fill="url(#f)"/><path d="M54.965 80.431c-11.114 0-20.125-8.916-20.125-19.914 0-10.998 9.01-19.914 20.125-19.914S75.09 49.52 75.09 60.517c0 10.998-9.01 19.914-20.125 19.914zm0-28.448c-3.018 0-5.488 2.56-5.488 5.69 0 1.99 1.097 3.982 2.744 4.836v6.543h5.489v-6.543c1.646-.854 2.744-2.845 2.744-4.837 0-3.129-2.47-5.69-5.489-5.69z" fill="#FFF"/><path d="M44.007 46.69h21.917V34.828a6 6 0 0 0-6-6h-9.917a6 6 0 0 0-6 6V46.69z" stroke="#FFF" stroke-width="3"/></g></g></svg>