<svg width="16" height="16" xmlns="http://www.w3.org/2000/svg"><path d="M7.16 5.752a.366.366 0 0 0-.465.565L8.735 8l-2.04 1.682a.366.366 0 1 0 .466.565l2.383-1.965a.366.366 0 0 0 0-.565L7.16 5.752zM8 15.267a7.223 7.223 0 0 1-5.14-2.128 7.222 7.222 0 0 1-2.128-5.14C.732 3.994 3.992.733 8 .733c4.007 0 7.268 3.26 7.268 7.268 0 4.007-3.26 7.267-7.268 7.267M8 0C3.589 0 0 3.588 0 8c0 2.136.832 4.145 2.343 5.656A7.947 7.947 0 0 0 8 15.999c4.411 0 8-3.588 8-8C16 3.59 12.411 0 8 0" fill="#B8C4D1" fill-rule="evenodd"/></svg>