<svg width="30" height="24" xmlns="http://www.w3.org/2000/svg"><path d="M9.237 24c11.144 0 17.238-9.233 17.238-17.239 0-.262-.005-.523-.017-.783a12.324 12.324 0 0 0 3.023-3.137 12.085 12.085 0 0 1-3.48.954A6.08 6.08 0 0 0 28.665.444a12.147 12.147 0 0 1-3.847 1.47A6.06 6.06 0 0 0 14.493 7.44 17.203 17.203 0 0 1 2.006 1.11a6.043 6.043 0 0 0-.82 3.045A6.054 6.054 0 0 0 3.88 9.198a6.014 6.014 0 0 1-2.743-.758l-.001.077a6.06 6.06 0 0 0 4.86 5.94 6.064 6.064 0 0 1-2.736.103 6.065 6.065 0 0 0 5.66 4.208 12.154 12.154 0 0 1-7.525 2.594c-.489 0-.971-.028-1.445-.084A17.15 17.15 0 0 0 9.237 24" fill="#3096D2" fill-rule="evenodd"/></svg>